<svg width="61" height="42" viewBox="0 0 61 42" fill="none" xmlns="http://www.w3.org/2000/svg">
<path fill-rule="evenodd" clip-rule="evenodd" d="M8.11145 2.70382L10.9118 4.53855L12.65 0L14.2916 4.53855L17.092 2.70382L15.6435 10.0427L20.6649 5.60076L20.4717 8.98053L25.2034 8.20801L22.2099 11.8775L25.2034 13.4225L20.0855 15.5469L19.8924 15.2572C19.7958 14.871 19.4095 14.5813 19.0233 14.5813H15.6435C15.1607 14.5813 14.6779 15.0641 14.6779 15.5469V19.313H13.2294V23.6584H12.0706V19.313H5.79389L8.01488 16.7057L0 13.4225L2.99351 11.8775L0 8.20801L4.73168 8.98053L4.53855 5.60076L9.55992 10.0427L8.11145 2.70382ZM17.4782 16.6092L17.1885 16.7057L18.7336 18.4439C18.4439 18.3473 18.2508 18.4439 17.9611 18.5405C17.6714 18.637 17.4782 18.9267 17.3817 19.313H16.7057V16.6092H17.4782Z" fill="#D4AF37"/>
<path d="M34.0874 26.0725C33.8943 26.2656 33.7012 26.3622 33.6046 26.4587C33.4115 26.5553 33.2184 26.7484 33.0252 26.845C32.7355 26.9416 32.5424 27.0381 32.3493 27.1347C32.0596 27.1347 31.7699 27.2313 31.3836 27.2313C30.6111 27.2313 29.9352 26.9416 29.4523 26.4587C28.9695 25.9759 28.6798 25.3 28.6798 24.5274C28.6798 23.8515 28.8729 23.3687 29.0661 22.9824C29.3558 22.5961 29.742 22.2099 30.2248 22.0168C30.7077 21.8236 31.2871 21.6305 31.963 21.5339C32.639 21.4374 33.3149 21.3408 34.0874 21.3408V21.2442C34.0874 20.7614 33.8943 20.4717 33.6046 20.2786C33.2184 20.0855 32.7355 19.9889 32.0596 19.9889C31.6733 19.9889 31.2871 20.0855 30.9008 20.182C30.5145 20.2786 30.0317 20.4717 29.6455 20.6648H29.4523V18.5404C29.742 18.4439 30.1283 18.3473 30.7077 18.2507C31.2871 18.1542 31.963 18.1542 32.5424 18.1542C33.9909 18.1542 35.0531 18.3473 35.729 18.8301C36.405 19.3129 36.7913 20.0855 36.7913 21.1477V26.9416H34.0874V26.0725ZM34.0874 24.7206V22.8858C33.6046 22.9824 33.3149 22.9824 33.0252 23.079C32.7355 23.079 32.4458 23.1755 32.1561 23.2721C31.963 23.3687 31.7699 23.4652 31.6733 23.6584C31.4802 23.7549 31.4802 24.0446 31.4802 24.3343C31.4802 24.7206 31.5768 25.0103 31.7699 25.1068C31.963 25.3 32.2527 25.3 32.7355 25.3C32.9287 25.3 33.2184 25.3 33.4115 25.2034C33.7012 25.1068 33.8943 24.9137 34.0874 24.7206ZM44.2267 22.5961C44.2267 21.8236 44.1302 21.1477 43.8405 20.7614C43.6474 20.3752 43.2611 20.2786 42.6817 20.2786C42.392 20.2786 42.1989 20.2786 41.9092 20.3752C41.7161 20.4717 41.4264 20.5683 41.2332 20.6648V25.0103C41.4264 25.1068 41.5229 25.1068 41.7161 25.1068C41.9092 25.2034 42.1023 25.2034 42.2955 25.2034C42.9714 25.2034 43.4542 25.0103 43.7439 24.5274C44.1302 24.1412 44.2267 23.4652 44.2267 22.5961ZM47.0271 22.5961C47.0271 23.9481 46.6409 25.0103 45.9649 25.8793C45.289 26.7484 44.4199 27.1347 43.3577 27.1347C42.9714 27.1347 42.5851 27.1347 42.2955 27.0381C41.9092 26.9416 41.6195 26.7484 41.2332 26.5553V30.1282H38.5294V18.3473H41.2332V19.3129C41.6195 18.9267 42.0058 18.637 42.4886 18.4439C42.8748 18.2507 43.3577 18.1542 43.8405 18.1542C44.9027 18.1542 45.6752 18.5404 46.158 19.3129C46.7374 20.0855 47.0271 21.2442 47.0271 22.5961ZM50.8897 26.9416H48.2825V15.0641H50.8897V26.9416ZM58.1321 21.6305C58.1321 21.0511 57.939 20.5683 57.7458 20.2786C57.4561 19.9889 57.0699 19.7958 56.587 19.7958C56.0077 19.7958 55.6214 19.9889 55.3317 20.2786C55.042 20.5683 54.8489 21.0511 54.8489 21.6305H58.1321ZM57.1664 27.2313C55.6214 27.2313 54.3661 26.845 53.497 26.0725C52.6279 25.3 52.1451 24.1412 52.1451 22.6927C52.1451 21.3408 52.5313 20.182 53.4004 19.4095C54.1729 18.5404 55.3317 18.1542 56.7802 18.1542C58.1321 18.1542 59.0977 18.4439 59.7737 19.2164C60.4496 19.8923 60.7393 20.9545 60.7393 22.2099V23.1755H54.8489C54.8489 23.5618 54.9454 23.9481 55.1386 24.2377C55.2351 24.4309 55.4283 24.7206 55.718 24.8171C55.9111 25.0103 56.2008 25.1068 56.4905 25.2034C56.7802 25.2034 57.1664 25.3 57.4561 25.3C57.8424 25.3 58.1321 25.2034 58.4218 25.2034C58.7115 25.1068 59.0012 25.0103 59.1943 24.9137C59.484 24.8171 59.6771 24.7206 59.8703 24.624C60.0634 24.4309 60.1599 24.3343 60.3531 24.2377H60.5462V26.4587C60.3531 26.5553 60.1599 26.6519 59.9668 26.7484C59.7737 26.845 59.5806 26.845 59.2909 26.9416C58.9046 27.0381 58.6149 27.1347 58.3252 27.1347C58.0355 27.2313 57.6493 27.2313 57.1664 27.2313ZM27.3279 26.9416H24.5275V19.4095L22.4031 24.3343H20.4718L18.3474 19.4095V26.9416H15.6436V15.5469H19.0233L21.534 21.2442L24.0447 15.5469H27.3279V26.9416Z" fill="#373435"/>
<path fill-rule="evenodd" clip-rule="evenodd" d="M22.8859 35.1496C22.8859 34.3771 22.7894 33.7977 22.4997 33.2183C22.3065 32.7355 21.9203 32.2527 21.3409 31.963C20.9546 31.7698 20.5684 31.6733 20.0855 31.6733C19.6993 31.5767 19.2165 31.5767 18.6371 31.5767H18.5405V38.7225H18.6371C19.2165 38.7225 19.7958 38.7225 20.1821 38.7225C20.6649 38.6259 21.0512 38.5294 21.4374 38.2397C21.9203 37.95 22.3065 37.5637 22.5962 37.0809C22.7894 36.5015 22.8859 35.9221 22.8859 35.1496ZM25.8794 35.1496C25.8794 36.2118 25.5897 37.1775 25.2035 38.0465C24.7206 38.9156 24.1413 39.495 23.3687 39.9778C22.7894 40.3641 22.21 40.5572 21.4374 40.6538C20.7615 40.8469 20.0855 40.8469 19.2165 40.8469H15.6436V29.4523H19.2165C19.989 29.4523 20.7615 29.5488 21.4374 29.6454C22.21 29.742 22.7894 29.9351 23.4653 30.3214C24.1413 30.8042 24.8172 31.4801 25.2035 32.3492C25.6863 33.1217 25.8794 34.0874 25.8794 35.1496ZM32.9287 35.4393C32.9287 34.8599 32.8321 34.4736 32.5424 34.1839C32.2527 33.8943 31.8664 33.7011 31.3836 33.7011C30.9008 33.7011 30.418 33.8943 30.1283 34.1839C29.8386 34.4736 29.742 34.9565 29.6455 35.4393H32.9287ZM32.0596 41.1366C30.418 41.1366 29.1626 40.7504 28.2935 39.9778C27.4245 39.2053 27.0382 38.0465 27.0382 36.5981C27.0382 35.2462 27.4245 34.0874 28.197 33.2183C29.0661 32.4458 30.1283 31.963 31.5768 31.963C32.9287 31.963 33.8943 32.3492 34.5703 33.0252C35.2462 33.7977 35.5359 34.7633 35.5359 36.1152V37.0809H29.6455C29.742 37.4672 29.742 37.8534 29.9352 38.0465C30.0317 38.3362 30.2248 38.5294 30.5145 38.7225C30.7077 38.9156 30.9974 39.0122 31.2871 39.1088C31.5768 39.1088 31.963 39.2053 32.3493 39.2053C32.639 39.2053 32.9287 39.1088 33.2184 39.1088C33.5081 39.0122 33.7977 38.9156 34.0874 38.8191C34.2806 38.7225 34.4737 38.6259 34.6668 38.4328C34.86 38.3362 35.0531 38.2397 35.1497 38.1431H35.4393V40.3641C35.2462 40.4607 34.9565 40.5572 34.86 40.6538C34.6668 40.7504 34.3771 40.7504 34.0874 40.8469C33.7977 40.9435 33.5081 41.0401 33.1218 41.0401C32.8321 41.0401 32.4458 41.1366 32.0596 41.1366ZM42.9714 34.8599H42.6817C42.5851 34.7633 42.4886 34.7633 42.2955 34.7633C42.1023 34.6668 41.9092 34.6668 41.6195 34.6668C41.3298 34.6668 41.0401 34.7633 40.7504 34.8599C40.4607 34.8599 40.171 34.9565 39.8813 35.1496V40.8469H37.1775V32.2527H39.8813V33.508C39.9779 33.4114 40.171 33.2183 40.3642 33.1217C40.5573 32.9286 40.7504 32.7355 40.9435 32.6389C41.1367 32.5423 41.3298 32.4458 41.6195 32.3492C41.9092 32.2527 42.1023 32.2527 42.392 32.2527C42.4886 32.2527 42.5851 32.2527 42.6817 32.2527C42.7783 32.2527 42.8748 32.2527 42.9714 32.2527V34.8599ZM54.4626 40.8469V36.5981C54.4626 36.1152 54.4626 35.8255 54.4626 35.5359C54.4626 35.2462 54.3661 34.9565 54.2695 34.7633C54.2695 34.5702 54.0764 34.4736 53.9798 34.3771C53.7867 34.2805 53.5935 34.2805 53.3038 34.2805C53.0141 34.2805 52.821 34.2805 52.6279 34.3771C52.4348 34.4736 52.2416 34.5702 52.0485 34.7633V40.8469H49.3447V36.5981C49.3447 36.1152 49.3447 35.8255 49.3447 35.5359C49.2481 35.2462 49.2481 34.9565 49.1516 34.7633C49.055 34.5702 48.9584 34.4736 48.7653 34.3771C48.6687 34.2805 48.379 34.2805 48.0893 34.2805C47.8962 34.2805 47.7031 34.2805 47.51 34.3771C47.2203 34.4736 47.0271 34.6668 46.834 34.7633V40.8469H44.2267V32.2527H46.834V33.2183C47.3168 32.832 47.7031 32.5423 48.0893 32.3492C48.4756 32.1561 48.9584 32.0595 49.4412 32.0595C49.9241 32.0595 50.4069 32.1561 50.7932 32.4458C51.1794 32.6389 51.4691 33.0252 51.6622 33.508C52.2416 33.0252 52.7245 32.6389 53.2073 32.4458C53.5935 32.1561 54.0764 32.0595 54.5592 32.0595C54.9454 32.0595 55.3317 32.0595 55.6214 32.2527C55.9111 32.3492 56.2008 32.5423 56.3939 32.832C56.6836 33.1217 56.8767 33.4114 56.9733 33.7977C57.0699 34.1839 57.1664 34.6668 57.1664 35.2462V40.8469H54.4626Z" fill="#D4AF37"/>
</svg>
