<svg width="278" height="81" viewBox="0 0 278 81" fill="none" xmlns="http://www.w3.org/2000/svg">
<path fill-rule="evenodd" clip-rule="evenodd" d="M21.6949 7.03451L29.1825 12.0263L33.6943 0.0268779L38.302 12.0263L45.7896 7.03451L41.8538 26.7135L55.2931 14.9061L54.8132 23.8336L67.4845 21.8177L59.3249 31.8012L67.3885 35.833L53.5652 41.4007L53.2772 40.6328C52.8933 39.5768 51.9333 38.8089 50.7814 38.8089H41.9498C40.4139 38.8089 39.262 40.0568 39.262 41.4967V51.3842H35.2302V63.0956H32.1583V51.3842H15.5512L21.5989 44.5686L0.0959988 35.833L8.06359 31.8012L3.79952e-06 21.8177L12.6713 23.8336L12.0954 14.9061L25.6307 26.7135L21.6949 7.03451ZM46.6536 44.1846L45.8856 44.5686L50.0134 49.2723C49.4374 49.0803 48.7655 49.0803 48.0935 49.3683C47.2296 49.6563 46.6536 50.5203 46.4616 51.3842H44.6377V44.1846H46.6536Z" fill="#D4AF37"/>
<path d="M91.0033 69.5273C90.5233 69.9112 90.1393 70.2952 89.7553 70.6792C89.3714 70.9672 88.7954 71.2552 88.2194 71.6392C87.5475 71.9271 86.8755 72.2151 86.2995 72.3111C85.7236 72.5031 84.8596 72.5991 83.8037 72.5991C81.7878 72.5991 80.0598 71.9271 78.7159 70.5832C77.372 69.1433 76.7 67.4154 76.7 65.3995C76.7 63.6716 77.084 62.3276 77.756 61.2717C78.4279 60.2158 79.3879 59.3518 80.7318 58.7758C81.9797 58.1039 83.5157 57.6239 85.3396 57.4319C87.0675 57.1439 88.9874 56.9519 91.0993 56.8559V56.7599C91.0993 55.416 90.6193 54.552 89.6593 54.0721C88.7954 53.5921 87.3555 53.4001 85.5316 53.4001C84.6676 53.4001 83.7077 53.4961 82.5557 53.8801C81.4038 54.1681 80.3478 54.552 79.2919 55.032H78.6199V49.4643C79.3879 49.2723 80.5398 48.9843 82.0757 48.6964C83.7077 48.4084 85.2436 48.3124 86.8755 48.3124C90.8113 48.3124 93.6911 48.9843 95.515 50.3283C97.3389 51.5762 98.2029 53.5921 98.2029 56.28V71.9271H91.0033V69.5273ZM91.0033 65.9755V61.1757C89.8513 61.2717 88.8914 61.3677 88.1234 61.4637C87.3555 61.5597 86.6835 61.7517 85.9155 62.0397C85.3396 62.2316 84.8596 62.5196 84.4756 62.9996C84.1876 63.4796 83.9956 64.0556 83.9956 64.7275C83.9956 65.8795 84.2836 66.5514 84.8596 67.0314C85.4356 67.4154 86.2995 67.6074 87.3555 67.6074C88.0274 67.6074 88.6034 67.4154 89.2754 67.1274C89.9473 66.8394 90.5233 66.4554 91.0033 65.9755ZM118.266 60.3117C118.266 58.1039 117.882 56.4719 117.21 55.512C116.442 54.4561 115.386 53.9761 113.946 53.9761C113.274 53.9761 112.698 54.0721 112.026 54.2641C111.354 54.4561 110.778 54.744 110.106 55.224V66.7434C110.49 66.9354 110.97 67.0314 111.45 67.1274C111.834 67.1274 112.41 67.2234 113.082 67.2234C114.81 67.2234 116.058 66.6474 116.922 65.4955C117.786 64.3435 118.266 62.6156 118.266 60.3117ZM125.561 60.2158C125.561 63.8636 124.602 66.8394 122.778 69.0473C120.858 71.2552 118.554 72.4071 115.866 72.4071C114.714 72.4071 113.658 72.3111 112.89 72.0231C112.026 71.7352 111.066 71.3512 110.106 70.8712V80.3747H103.003V48.9843H110.106V51.3842C111.162 50.5203 112.314 49.7523 113.37 49.2723C114.426 48.6964 115.674 48.4084 117.114 48.4084C119.802 48.4084 121.914 49.4643 123.354 51.5762C124.794 53.6881 125.561 56.5679 125.561 60.2158ZM136.025 71.9271H128.825V40.1528H136.025V71.9271ZM155.128 57.5279C155.128 55.992 154.744 54.84 154.072 54.0721C153.4 53.3041 152.44 52.9201 151.096 52.9201C149.656 52.9201 148.504 53.3041 147.736 54.1681C146.968 54.936 146.488 56.088 146.488 57.5279H155.128ZM152.728 72.5991C148.408 72.5991 145.048 71.5432 142.745 69.5273C140.441 67.4154 139.289 64.4395 139.289 60.5997C139.289 56.8559 140.441 53.8801 142.553 51.6722C144.664 49.4643 147.736 48.3124 151.576 48.3124C155.128 48.3124 157.816 49.2723 159.544 51.1922C161.368 53.0161 162.232 55.8 162.232 59.2558V61.8477H146.488C146.584 62.9036 146.776 63.8636 147.16 64.5355C147.544 65.3035 148.024 65.7835 148.696 66.2634C149.272 66.6474 150.04 66.9354 150.808 67.1274C151.672 67.3194 152.536 67.4154 153.496 67.4154C154.36 67.4154 155.128 67.3194 155.992 67.1274C156.76 66.9354 157.528 66.7434 158.2 66.4554C158.776 66.1674 159.352 65.8795 159.832 65.5915C160.312 65.3035 160.696 65.0155 160.984 64.7275H161.752V70.6792C161.176 70.8712 160.696 71.1592 160.216 71.3512C159.736 71.5432 159.064 71.7352 158.2 71.9271C157.432 72.1191 156.568 72.3111 155.8 72.4071C154.936 72.5031 153.976 72.5991 152.728 72.5991ZM73.0522 71.9271H65.3726V51.7682L59.9009 64.8235H54.7172L49.1495 51.7682V71.9271H41.9498V41.4967H50.7814L57.501 56.5679L64.2207 41.4967H73.0522V71.9271Z" fill="#373435"/>
<path fill-rule="evenodd" clip-rule="evenodd" d="M186.134 56.6639C186.134 54.744 185.846 53.0161 185.078 51.5762C184.406 50.1363 183.35 49.0803 181.911 48.2164C180.951 47.6404 179.799 47.3524 178.743 47.3524C177.591 47.2564 176.247 47.2564 174.615 47.2564H174.519V66.2634H174.615C176.343 66.2634 177.783 66.1674 178.935 66.1674C180.183 66.0715 181.239 65.6875 182.295 65.0155C183.542 64.2475 184.502 63.1916 185.174 61.7517C185.846 60.4077 186.134 58.6798 186.134 56.6639ZM194.006 56.7599C194.006 59.6398 193.43 62.1357 192.182 64.3435C190.934 66.6474 189.302 68.3753 187.478 69.5273C185.846 70.5832 184.118 71.2552 182.295 71.5432C180.471 71.8312 178.455 71.9271 176.343 71.9271H166.839V41.4967H176.247C178.455 41.4967 180.375 41.6887 182.295 41.9767C184.118 42.1687 185.942 42.8407 187.574 43.8966C189.494 45.2405 191.126 46.9684 192.278 49.0803C193.43 51.2882 194.006 53.8801 194.006 56.7599ZM212.917 57.5279C212.821 55.992 212.533 54.84 211.861 54.0721C211.189 53.3041 210.133 52.9201 208.789 52.9201C207.349 52.9201 206.293 53.3041 205.525 54.1681C204.661 54.936 204.277 56.088 204.181 57.5279H212.917ZM210.517 72.5991C206.197 72.5991 202.837 71.5432 200.534 69.5273C198.23 67.4154 197.078 64.4395 197.078 60.5997C197.078 56.8559 198.134 53.8801 200.246 51.6722C202.453 49.4643 205.429 48.3124 209.365 48.3124C212.821 48.3124 215.509 49.2723 217.237 51.1922C219.061 53.0161 219.925 55.8 219.925 59.2558V61.8477H204.181C204.277 62.9036 204.469 63.8636 204.853 64.5355C205.237 65.3035 205.717 65.7835 206.389 66.2634C206.965 66.6474 207.733 66.9354 208.501 67.1274C209.365 67.3194 210.229 67.4154 211.189 67.4154C212.053 67.4154 212.917 67.3194 213.685 67.1274C214.453 66.9354 215.221 66.7434 215.893 66.4554C216.469 66.1674 217.045 65.8795 217.525 65.5915C218.005 65.3035 218.485 65.0155 218.773 64.7275H219.541V70.6792C218.965 70.8712 218.389 71.1592 217.909 71.3512C217.429 71.5432 216.757 71.7352 215.893 71.9271C215.125 72.1191 214.357 72.3111 213.493 72.4071C212.725 72.5031 211.669 72.5991 210.517 72.5991ZM239.604 55.8H239.028C238.74 55.704 238.356 55.608 237.78 55.608C237.3 55.512 236.724 55.512 236.052 55.512C235.38 55.512 234.516 55.608 233.748 55.8C232.884 56.088 232.116 56.28 231.348 56.5679V71.9271H224.148V48.9843H231.348V52.3442C231.636 51.9602 232.116 51.6722 232.692 51.1922C233.268 50.7122 233.748 50.3283 234.228 50.0403C234.804 49.7523 235.38 49.4643 236.052 49.2723C236.82 49.0803 237.396 48.9843 238.068 48.9843C238.26 48.9843 238.548 48.9843 238.836 48.9843C239.124 48.9843 239.412 48.9843 239.604 48.9843V55.8ZM270.322 71.9271V60.5037C270.322 59.3518 270.322 58.3918 270.322 57.6239C270.226 56.8559 270.13 56.28 269.938 55.704C269.746 55.224 269.362 54.936 268.978 54.648C268.498 54.4561 267.922 54.3601 267.154 54.3601C266.578 54.3601 266.098 54.4561 265.522 54.648C264.946 54.936 264.37 55.32 263.794 55.704V71.9271H256.595V60.5037C256.595 59.3518 256.595 58.3918 256.595 57.6239C256.499 56.8559 256.403 56.28 256.211 55.704C255.923 55.224 255.635 54.936 255.251 54.648C254.771 54.4561 254.195 54.3601 253.427 54.3601C252.851 54.3601 252.275 54.4561 251.699 54.744C251.123 55.032 250.547 55.32 250.067 55.704V71.9271H242.867V48.9843H250.067V51.5762C251.219 50.5203 252.371 49.7523 253.331 49.2723C254.387 48.6964 255.539 48.4084 256.883 48.4084C258.227 48.4084 259.475 48.6964 260.53 49.3683C261.586 50.0403 262.45 51.0962 263.026 52.3442C264.37 51.0962 265.618 50.1363 266.866 49.4643C268.114 48.6964 269.362 48.4084 270.61 48.4084C271.666 48.4084 272.626 48.6004 273.394 48.8883C274.258 49.2723 275.026 49.7523 275.602 50.4243C276.274 51.1922 276.658 52.0562 277.042 53.0161C277.33 54.0721 277.522 55.416 277.522 57.0479V71.9271H270.322Z" fill="#D4AF37"/>
</svg>
