<svg width="278" height="81" viewBox="0 0 278 81" fill="none" xmlns="http://www.w3.org/2000/svg">
<g clip-path="url(#clip0_317_6)">
<path fill-rule="evenodd" clip-rule="evenodd" d="M21.6949 7.03449L29.1825 12.0263L33.6943 0.0268555L38.302 12.0263L45.7896 7.03449L41.8538 26.7135L55.2931 14.9061L54.8132 23.8336L67.4845 21.8177L59.3249 31.8012L67.3885 35.833L53.5652 41.4007L53.2772 40.6328C52.8933 39.5768 51.9333 38.8089 50.7814 38.8089H41.9498C40.4139 38.8089 39.262 40.0568 39.262 41.4967V51.3842H35.2302V63.0956H32.1583V51.3842H15.5512L21.5989 44.5686L0.095995 35.833L8.06359 31.8012L0 21.8177L12.6713 23.8336L12.0954 14.9061L25.6307 26.7135L21.6949 7.03449ZM46.6536 44.1846L45.8856 44.5686L50.0134 49.2723C49.4374 49.0803 48.7655 49.0803 48.0935 49.3683C47.2296 49.6563 46.6536 50.5203 46.4616 51.3842H44.6377V44.1846H46.6536Z" fill="#C2A14D"/>
<path d="M91.0032 69.5273C90.5232 69.9112 90.1392 70.2952 89.7552 70.6792C89.3713 70.9672 88.7953 71.2552 88.2193 71.6392C87.5474 71.9271 86.8754 72.2151 86.2994 72.3111C85.7235 72.5031 84.8595 72.5991 83.8036 72.5991C81.7877 72.5991 80.0597 71.9271 78.7158 70.5832C77.3719 69.1433 76.6999 67.4154 76.6999 65.3995C76.6999 63.6716 77.0839 62.3276 77.7559 61.2717C78.4278 60.2158 79.3878 59.3518 80.7317 58.7758C81.9796 58.1039 83.5156 57.6239 85.3395 57.4319C87.0674 57.1439 88.9873 56.9519 91.0992 56.8559V56.7599C91.0992 55.416 90.6192 54.552 89.6592 54.0721C88.7953 53.5921 87.3554 53.4001 85.5315 53.4001C84.6675 53.4001 83.7076 53.4961 82.5556 53.8801C81.4037 54.1681 80.3477 54.552 79.2918 55.032H78.6198V49.4643C79.3878 49.2723 80.5397 48.9843 82.0756 48.6964C83.7076 48.4084 85.2435 48.3124 86.8754 48.3124C90.8112 48.3124 93.691 48.9843 95.5149 50.3283C97.3388 51.5762 98.2028 53.5921 98.2028 56.28V71.9271H91.0032V69.5273ZM91.0032 65.9755V61.1757C89.8512 61.2717 88.8913 61.3677 88.1233 61.4637C87.3554 61.5597 86.6834 61.7517 85.9154 62.0397C85.3395 62.2316 84.8595 62.5196 84.4755 62.9996C84.1875 63.4796 83.9955 64.0556 83.9955 64.7275C83.9955 65.8795 84.2835 66.5514 84.8595 67.0314C85.4355 67.4154 86.2994 67.6074 87.3554 67.6074C88.0273 67.6074 88.6033 67.4154 89.2753 67.1274C89.9472 66.8394 90.5232 66.4554 91.0032 65.9755ZM118.266 60.3117C118.266 58.1039 117.882 56.4719 117.21 55.512C116.442 54.4561 115.386 53.9761 113.946 53.9761C113.274 53.9761 112.698 54.0721 112.026 54.2641C111.354 54.4561 110.778 54.744 110.106 55.224V66.7434C110.49 66.9354 110.97 67.0314 111.45 67.1274C111.834 67.1274 112.41 67.2234 113.082 67.2234C114.81 67.2234 116.058 66.6474 116.922 65.4955C117.786 64.3435 118.266 62.6156 118.266 60.3117ZM125.561 60.2158C125.561 63.8636 124.602 66.8394 122.778 69.0473C120.858 71.2552 118.554 72.4071 115.866 72.4071C114.714 72.4071 113.658 72.3111 112.89 72.0231C112.026 71.7352 111.066 71.3512 110.106 70.8712V80.3747H103.003V48.9843H110.106V51.3842C111.162 50.5203 112.314 49.7523 113.37 49.2723C114.426 48.6964 115.674 48.4084 117.114 48.4084C119.802 48.4084 121.914 49.4643 123.354 51.5762C124.794 53.6881 125.561 56.5679 125.561 60.2158ZM136.025 71.9271H128.825V40.1528H136.025V71.9271ZM155.128 57.5279C155.128 55.992 154.744 54.84 154.072 54.0721C153.4 53.3041 152.44 52.9201 151.096 52.9201C149.656 52.9201 148.504 53.3041 147.736 54.1681C146.968 54.936 146.488 56.088 146.488 57.5279H155.128ZM152.728 72.5991C148.408 72.5991 145.048 71.5432 142.745 69.5273C140.441 67.4154 139.289 64.4395 139.289 60.5997C139.289 56.8559 140.441 53.8801 142.553 51.6722C144.664 49.4643 147.736 48.3124 151.576 48.3124C155.128 48.3124 157.816 49.2723 159.544 51.1922C161.368 53.0161 162.232 55.8 162.232 59.2558V61.8477H146.488C146.584 62.9036 146.776 63.8636 147.16 64.5355C147.544 65.3035 148.024 65.7835 148.696 66.2634C149.272 66.6474 150.04 66.9354 150.808 67.1274C151.672 67.3194 152.536 67.4154 153.496 67.4154C154.36 67.4154 155.128 67.3194 155.992 67.1274C156.76 66.9354 157.528 66.7434 158.2 66.4554C158.776 66.1674 159.352 65.8795 159.832 65.5915C160.312 65.3035 160.696 65.0155 160.984 64.7275H161.752V70.6792C161.176 70.8712 160.696 71.1592 160.216 71.3512C159.736 71.5432 159.064 71.7352 158.2 71.9271C157.432 72.1191 156.568 72.3111 155.8 72.4071C154.936 72.5031 153.976 72.5991 152.728 72.5991ZM73.0521 71.9271H65.3725V51.7682L59.9008 64.8235H54.7171L49.1494 51.7682V71.9271H41.9497V41.4967H50.7813L57.5009 56.5679L64.2206 41.4967H73.0521V71.9271Z" fill="#373435"/>
<path fill-rule="evenodd" clip-rule="evenodd" d="M186.134 56.6638C186.134 54.7439 185.846 53.016 185.078 51.5761C184.406 50.1362 183.35 49.0802 181.911 48.2163C180.951 47.6403 179.799 47.3523 178.743 47.3523C177.591 47.2563 176.247 47.2563 174.615 47.2563H174.519V66.2633H174.615C176.343 66.2633 177.783 66.1673 178.935 66.1673C180.183 66.0714 181.239 65.6874 182.295 65.0154C183.542 64.2474 184.502 63.1915 185.174 61.7516C185.846 60.4076 186.134 58.6797 186.134 56.6638ZM194.006 56.7598C194.006 59.6397 193.43 62.1356 192.182 64.3434C190.934 66.6473 189.302 68.3752 187.478 69.5272C185.846 70.5831 184.118 71.2551 182.295 71.5431C180.471 71.8311 178.455 71.927 176.343 71.927H166.839V41.4966H176.247C178.455 41.4966 180.375 41.6886 182.295 41.9766C184.118 42.1686 185.942 42.8406 187.574 43.8965C189.494 45.2404 191.126 46.9683 192.278 49.0802C193.43 51.2881 194.006 53.88 194.006 56.7598ZM212.917 57.5278C212.821 55.9919 212.533 54.8399 211.861 54.072C211.189 53.304 210.133 52.92 208.789 52.92C207.349 52.92 206.293 53.304 205.525 54.168C204.661 54.9359 204.277 56.0879 204.181 57.5278H212.917ZM210.517 72.599C206.197 72.599 202.837 71.5431 200.534 69.5272C198.23 67.4153 197.078 64.4394 197.078 60.5996C197.078 56.8558 198.134 53.88 200.246 51.6721C202.453 49.4642 205.429 48.3123 209.365 48.3123C212.821 48.3123 215.509 49.2722 217.237 51.1921C219.061 53.016 219.925 55.7999 219.925 59.2557V61.8476H204.181C204.277 62.9035 204.469 63.8635 204.853 64.5354C205.237 65.3034 205.717 65.7834 206.389 66.2633C206.965 66.6473 207.733 66.9353 208.501 67.1273C209.365 67.3193 210.229 67.4153 211.189 67.4153C212.053 67.4153 212.917 67.3193 213.685 67.1273C214.453 66.9353 215.221 66.7433 215.893 66.4553C216.469 66.1673 217.045 65.8794 217.525 65.5914C218.005 65.3034 218.485 65.0154 218.773 64.7274H219.541V70.6791C218.965 70.8711 218.389 71.1591 217.909 71.3511C217.429 71.5431 216.757 71.7351 215.893 71.927C215.125 72.119 214.357 72.311 213.493 72.407C212.725 72.503 211.669 72.599 210.517 72.599ZM239.604 55.7999H239.028C238.74 55.7039 238.356 55.6079 237.78 55.6079C237.3 55.5119 236.724 55.5119 236.052 55.5119C235.38 55.5119 234.516 55.6079 233.748 55.7999C232.884 56.0879 232.116 56.2799 231.348 56.5678V71.927H224.148V48.9842H231.348V52.3441C231.636 51.9601 232.116 51.6721 232.692 51.1921C233.268 50.7121 233.748 50.3282 234.228 50.0402C234.804 49.7522 235.38 49.4642 236.052 49.2722C236.82 49.0802 237.396 48.9842 238.068 48.9842C238.26 48.9842 238.548 48.9842 238.836 48.9842C239.124 48.9842 239.412 48.9842 239.604 48.9842V55.7999ZM270.322 71.927V60.5036C270.322 59.3517 270.322 58.3917 270.322 57.6238C270.226 56.8558 270.13 56.2799 269.938 55.7039C269.746 55.2239 269.362 54.9359 268.978 54.6479C268.498 54.456 267.922 54.36 267.154 54.36C266.578 54.36 266.098 54.456 265.522 54.6479C264.946 54.9359 264.37 55.3199 263.794 55.7039V71.927H256.595V60.5036C256.595 59.3517 256.595 58.3917 256.595 57.6238C256.499 56.8558 256.403 56.2799 256.211 55.7039C255.923 55.2239 255.635 54.9359 255.251 54.6479C254.771 54.456 254.195 54.36 253.427 54.36C252.851 54.36 252.275 54.456 251.699 54.7439C251.123 55.0319 250.547 55.3199 250.067 55.7039V71.927H242.867V48.9842H250.067V51.5761C251.219 50.5202 252.371 49.7522 253.331 49.2722C254.387 48.6963 255.539 48.4083 256.883 48.4083C258.227 48.4083 259.475 48.6963 260.53 49.3682C261.586 50.0402 262.45 51.0961 263.026 52.3441C264.37 51.0961 265.618 50.1362 266.866 49.4642C268.114 48.6963 269.362 48.4083 270.61 48.4083C271.666 48.4083 272.626 48.6003 273.394 48.8882C274.258 49.2722 275.026 49.7522 275.602 50.4242C276.274 51.1921 276.658 52.0561 277.042 53.016C277.33 54.072 277.522 55.4159 277.522 57.0478V71.927H270.322Z" fill="#C2A14D"/>
</g>
<defs>
<clipPath id="clip0_317_6">
<rect width="278" height="81" fill="white"/>
</clipPath>
</defs>
</svg>
