<svg width="61" height="42" viewBox="0 0 61 42" fill="none" xmlns="http://www.w3.org/2000/svg">
<g clip-path="url(#clip0_317_15)">
<path fill-rule="evenodd" clip-rule="evenodd" d="M8.11145 2.70382L10.9118 4.53855L12.65 0L14.2916 4.53855L17.092 2.70382L15.6435 10.0427L20.6649 5.60076L20.4717 8.98053L25.2034 8.20801L22.2099 11.8775L25.2034 13.4225L20.0855 15.5469L19.8924 15.2572C19.7958 14.871 19.4095 14.5813 19.0233 14.5813H15.6435C15.1607 14.5813 14.6779 15.0641 14.6779 15.5469V19.313H13.2294V23.6584H12.0706V19.313H5.79389L8.01488 16.7057L0 13.4225L2.99351 11.8775L0 8.20801L4.73168 8.98053L4.53855 5.60076L9.55992 10.0427L8.11145 2.70382ZM17.4782 16.6092L17.1885 16.7057L18.7336 18.4439C18.4439 18.3473 18.2508 18.4439 17.9611 18.5405C17.6714 18.637 17.4782 18.9267 17.3817 19.313H16.7057V16.6092H17.4782Z" fill="#C2A14D"/>
<path d="M34.0874 26.0726C33.8943 26.2657 33.7012 26.3623 33.6046 26.4588C33.4115 26.5554 33.2184 26.7485 33.0252 26.8451C32.7355 26.9417 32.5424 27.0382 32.3493 27.1348C32.0596 27.1348 31.7699 27.2314 31.3836 27.2314C30.6111 27.2314 29.9352 26.9417 29.4523 26.4588C28.9695 25.976 28.6798 25.3001 28.6798 24.5275C28.6798 23.8516 28.8729 23.3688 29.0661 22.9825C29.3558 22.5962 29.742 22.21 30.2248 22.0169C30.7077 21.8237 31.2871 21.6306 31.963 21.534C32.639 21.4375 33.3149 21.3409 34.0874 21.3409V21.2443C34.0874 20.7615 33.8943 20.4718 33.6046 20.2787C33.2184 20.0856 32.7355 19.989 32.0596 19.989C31.6733 19.989 31.2871 20.0856 30.9008 20.1821C30.5145 20.2787 30.0317 20.4718 29.6455 20.6649H29.4523V18.5405C29.742 18.444 30.1283 18.3474 30.7077 18.2508C31.2871 18.1543 31.963 18.1543 32.5424 18.1543C33.9909 18.1543 35.0531 18.3474 35.729 18.8302C36.405 19.313 36.7913 20.0856 36.7913 21.1478V26.9417H34.0874V26.0726ZM34.0874 24.7207V22.8859C33.6046 22.9825 33.3149 22.9825 33.0252 23.0791C32.7355 23.0791 32.4458 23.1756 32.1561 23.2722C31.963 23.3688 31.7699 23.4653 31.6733 23.6585C31.4802 23.755 31.4802 24.0447 31.4802 24.3344C31.4802 24.7207 31.5768 25.0104 31.7699 25.1069C31.963 25.3001 32.2527 25.3001 32.7355 25.3001C32.9287 25.3001 33.2184 25.3001 33.4115 25.2035C33.7012 25.1069 33.8943 24.9138 34.0874 24.7207ZM44.2267 22.5962C44.2267 21.8237 44.1302 21.1478 43.8405 20.7615C43.6474 20.3753 43.2611 20.2787 42.6817 20.2787C42.392 20.2787 42.1989 20.2787 41.9092 20.3753C41.7161 20.4718 41.4264 20.5684 41.2332 20.6649V25.0104C41.4264 25.1069 41.5229 25.1069 41.7161 25.1069C41.9092 25.2035 42.1023 25.2035 42.2955 25.2035C42.9714 25.2035 43.4542 25.0104 43.7439 24.5275C44.1302 24.1413 44.2267 23.4653 44.2267 22.5962ZM47.0271 22.5962C47.0271 23.9482 46.6409 25.0104 45.9649 25.8794C45.289 26.7485 44.4199 27.1348 43.3577 27.1348C42.9714 27.1348 42.5851 27.1348 42.2955 27.0382C41.9092 26.9417 41.6195 26.7485 41.2332 26.5554V30.1283H38.5294V18.3474H41.2332V19.313C41.6195 18.9268 42.0058 18.6371 42.4886 18.444C42.8748 18.2508 43.3577 18.1543 43.8405 18.1543C44.9027 18.1543 45.6752 18.5405 46.158 19.313C46.7374 20.0856 47.0271 21.2443 47.0271 22.5962ZM50.8897 26.9417H48.2825V15.0642H50.8897V26.9417ZM58.1321 21.6306C58.1321 21.0512 57.939 20.5684 57.7458 20.2787C57.4561 19.989 57.0699 19.7959 56.587 19.7959C56.0077 19.7959 55.6214 19.989 55.3317 20.2787C55.042 20.5684 54.8489 21.0512 54.8489 21.6306H58.1321ZM57.1664 27.2314C55.6214 27.2314 54.3661 26.8451 53.497 26.0726C52.6279 25.3001 52.1451 24.1413 52.1451 22.6928C52.1451 21.3409 52.5313 20.1821 53.4004 19.4096C54.1729 18.5405 55.3317 18.1543 56.7802 18.1543C58.1321 18.1543 59.0977 18.444 59.7737 19.2165C60.4496 19.8924 60.7393 20.9546 60.7393 22.21V23.1756H54.8489C54.8489 23.5619 54.9454 23.9482 55.1386 24.2378C55.2351 24.431 55.4283 24.7207 55.718 24.8172C55.9111 25.0104 56.2008 25.1069 56.4905 25.2035C56.7802 25.2035 57.1664 25.3001 57.4561 25.3001C57.8424 25.3001 58.1321 25.2035 58.4218 25.2035C58.7115 25.1069 59.0012 25.0104 59.1943 24.9138C59.484 24.8172 59.6771 24.7207 59.8703 24.6241C60.0634 24.431 60.1599 24.3344 60.3531 24.2378H60.5462V26.4588C60.3531 26.5554 60.1599 26.652 59.9668 26.7485C59.7737 26.8451 59.5806 26.8451 59.2909 26.9417C58.9046 27.0382 58.6149 27.1348 58.3252 27.1348C58.0355 27.2314 57.6493 27.2314 57.1664 27.2314ZM27.3279 26.9417H24.5275V19.4096L22.4031 24.3344H20.4718L18.3474 19.4096V26.9417H15.6436V15.547H19.0233L21.534 21.2443L24.0447 15.547H27.3279V26.9417Z" fill="#373435"/>
<path fill-rule="evenodd" clip-rule="evenodd" d="M22.8859 35.1497C22.8859 34.3772 22.7894 33.7978 22.4997 33.2184C22.3065 32.7356 21.9203 32.2528 21.3409 31.9631C20.9546 31.7699 20.5684 31.6734 20.0855 31.6734C19.6993 31.5768 19.2165 31.5768 18.6371 31.5768H18.5405V38.7226H18.6371C19.2165 38.7226 19.7958 38.7226 20.1821 38.7226C20.6649 38.626 21.0512 38.5295 21.4374 38.2398C21.9203 37.9501 22.3065 37.5638 22.5962 37.081C22.7894 36.5016 22.8859 35.9222 22.8859 35.1497ZM25.8794 35.1497C25.8794 36.2119 25.5897 37.1776 25.2035 38.0466C24.7206 38.9157 24.1413 39.4951 23.3687 39.9779C22.7894 40.3642 22.21 40.5573 21.4374 40.6539C20.7615 40.847 20.0855 40.847 19.2165 40.847H15.6436V29.4524H19.2165C19.989 29.4524 20.7615 29.5489 21.4374 29.6455C22.21 29.7421 22.7894 29.9352 23.4653 30.3215C24.1413 30.8043 24.8172 31.4802 25.2035 32.3493C25.6863 33.1218 25.8794 34.0875 25.8794 35.1497ZM32.9287 35.4394C32.9287 34.86 32.8321 34.4737 32.5424 34.184C32.2527 33.8944 31.8664 33.7012 31.3836 33.7012C30.9008 33.7012 30.418 33.8944 30.1283 34.184C29.8386 34.4737 29.742 34.9566 29.6455 35.4394H32.9287ZM32.0596 41.1367C30.418 41.1367 29.1626 40.7505 28.2935 39.9779C27.4245 39.2054 27.0382 38.0466 27.0382 36.5982C27.0382 35.2463 27.4245 34.0875 28.197 33.2184C29.0661 32.4459 30.1283 31.9631 31.5768 31.9631C32.9287 31.9631 33.8943 32.3493 34.5703 33.0253C35.2462 33.7978 35.5359 34.7634 35.5359 36.1153V37.081H29.6455C29.742 37.4673 29.742 37.8535 29.9352 38.0466C30.0317 38.3363 30.2248 38.5295 30.5145 38.7226C30.7077 38.9157 30.9974 39.0123 31.2871 39.1089C31.5768 39.1089 31.963 39.2054 32.3493 39.2054C32.639 39.2054 32.9287 39.1089 33.2184 39.1089C33.5081 39.0123 33.7977 38.9157 34.0874 38.8192C34.2806 38.7226 34.4737 38.626 34.6668 38.4329C34.86 38.3363 35.0531 38.2398 35.1497 38.1432H35.4393V40.3642C35.2462 40.4608 34.9565 40.5573 34.86 40.6539C34.6668 40.7505 34.3771 40.7505 34.0874 40.847C33.7977 40.9436 33.5081 41.0402 33.1218 41.0402C32.8321 41.0402 32.4458 41.1367 32.0596 41.1367ZM42.9714 34.86H42.6817C42.5851 34.7634 42.4886 34.7634 42.2955 34.7634C42.1023 34.6669 41.9092 34.6669 41.6195 34.6669C41.3298 34.6669 41.0401 34.7634 40.7504 34.86C40.4607 34.86 40.171 34.9566 39.8813 35.1497V40.847H37.1775V32.2528H39.8813V33.5081C39.9779 33.4115 40.171 33.2184 40.3642 33.1218C40.5573 32.9287 40.7504 32.7356 40.9435 32.639C41.1367 32.5424 41.3298 32.4459 41.6195 32.3493C41.9092 32.2528 42.1023 32.2528 42.392 32.2528C42.4886 32.2528 42.5851 32.2528 42.6817 32.2528C42.7783 32.2528 42.8748 32.2528 42.9714 32.2528V34.86ZM54.4626 40.847V36.5982C54.4626 36.1153 54.4626 35.8256 54.4626 35.536C54.4626 35.2463 54.3661 34.9566 54.2695 34.7634C54.2695 34.5703 54.0764 34.4737 53.9798 34.3772C53.7867 34.2806 53.5935 34.2806 53.3038 34.2806C53.0141 34.2806 52.821 34.2806 52.6279 34.3772C52.4348 34.4737 52.2416 34.5703 52.0485 34.7634V40.847H49.3447V36.5982C49.3447 36.1153 49.3447 35.8256 49.3447 35.536C49.2481 35.2463 49.2481 34.9566 49.1516 34.7634C49.055 34.5703 48.9584 34.4737 48.7653 34.3772C48.6687 34.2806 48.379 34.2806 48.0893 34.2806C47.8962 34.2806 47.7031 34.2806 47.51 34.3772C47.2203 34.4737 47.0271 34.6669 46.834 34.7634V40.847H44.2267V32.2528H46.834V33.2184C47.3168 32.8321 47.7031 32.5424 48.0893 32.3493C48.4756 32.1562 48.9584 32.0596 49.4412 32.0596C49.9241 32.0596 50.4069 32.1562 50.7932 32.4459C51.1794 32.639 51.4691 33.0253 51.6622 33.5081C52.2416 33.0253 52.7245 32.639 53.2073 32.4459C53.5935 32.1562 54.0764 32.0596 54.5592 32.0596C54.9454 32.0596 55.3317 32.0596 55.6214 32.2528C55.9111 32.3493 56.2008 32.5424 56.3939 32.8321C56.6836 33.1218 56.8767 33.4115 56.9733 33.7978C57.0699 34.184 57.1664 34.6669 57.1664 35.2463V40.847H54.4626Z" fill="#C2A14D"/>
</g>
<defs>
<clipPath id="clip0_317_15">
<rect width="61" height="42" fill="white"/>
</clipPath>
</defs>
</svg>
